<svg viewBox="0 0 100 100" xmlns="http://www.w3.org/2000/svg">
  <polygon points="0,0 0,20, 20,0 0,0" fill="#FDB827" />
  <polygon points="0,20  0,40, 40,0 20,0" fill="#F58219" />
  <polygon points="0,40  0,60, 60,0 40,0" fill="#E03A3E" />
  <polygon points="0,60  0,80, 80,0 60,0" fill="#973C98" />
  <polygon points="0,80  0,100, 100,0 80,0" fill="#009DDD" />
  <polygon points="0,100 20,100 100,20 100,0" fill="#FDB827" />
  <polygon points="20,100  40,100, 100,40 100,20" fill="#F58219" />
  <polygon points="40,100  60,100 100,60 100,40" fill="#E03A3E" />
  <polygon points="60,100 80,100 100,80 100,60" fill="#973C98" />
  <polygon points="80,100  100,100, 100,80" fill="#009DDD" />
</svg>
